<?xml version="1.0" encoding="UTF-8" standalone="no"?>
<!DOCTYPE svg  PUBLIC '-//W3C//DTD SVG 1.1//EN'  'http://www.w3.org/Graphics/SVG/1.1/DTD/svg11.dtd'>
<svg xmlns="http://www.w3.org/2000/svg">
<defs>
<font id="FranklinGothic-BookItalic" horiz-adv-x="1201">
<font-face slope="-9.5" underline-position="-103" font-weight="400" descent="-410" panose-1="2 11 5 3 2 1 2 9 2 4" units-per-em="2048" unicode-range="U+0020-02DC" bbox="-248 -411 1812 1816" x-height="1013" underline-thickness="102" font-family="FranklinGothic" ascent="1638" font-style="italic" cap-height="1365"/>
<missing-glyph horiz-adv-x="2048"/>
<glyph glyph-name=".notdef" horiz-adv-x="2048"/>
<glyph glyph-name=".null" horiz-adv-x="0"/>
<glyph glyph-name="nonmarkingreturn" horiz-adv-x="2048"/>
<glyph glyph-name="space" horiz-adv-x="512" unicode=" "/>
<glyph glyph-name="exclam" horiz-adv-x="547" unicode="!" d="M292 0h-206l33 195h206zM296 351h-85l90 1014h226z"/>
<glyph glyph-name="quotedbl" horiz-adv-x="633" unicode='&quot;' d="M554 844h-93l57 521h153zM285 844h-93l57 521h153z"/>
<glyph glyph-name="numbersign" d="M811 842h-287l-63 -286h288zM1181 965l-27 -123h-210l-63 -286h210l-27 -123h-211l-95 -433h-131l96 433h-290l-96 -433h-130l96 433h-218l27 123h219l63 286h-219l27 123h219l88 400h130l-88 -400h288l88 400h131l-89 -400h212z" unicode="#"/>
<glyph glyph-name="dollar" d="M662 616l-79 -473h31q122 0 207.5 71t85.5 178q0 167 -245 224zM571 798l73 435q-120 -1 -201.5 -62t-81.5 -166q0 -161 210 -207zM1123 1098l-137 -68q-68 152 -223 190l-75 -450q377 -87 377 -359q0 -165 -130.5 -283t-373.5 -119l-34 -199h-121l36 215 q-261 55 -368 307l135 70q84 -204 256 -242l80 484q-336 81 -336 332q0 150 117.5 263.5t338.5 115.5l30 180h121l-32 -189q237 -36 339 -248z" unicode="$"/>
<glyph glyph-name="percent" horiz-adv-x="1583" unicode="%" d="M1145 76q95 0 154.5 87t59.5 244q0 100 -52 143.5t-114 43.5q-96 0 -154 -93.5t-58 -219.5q0 -102 47 -153.5t117 -51.5zM1151 -23q-141 0 -219.5 95t-78.5 228q0 145 100.5 269.5t242.5 124.5q128 0 209 -92t81 -227q0 -156 -97 -277t-238 -121zM352 0h-130l1066 1365 h128zM451 780q96 0 153.5 94t57.5 238q0 77 -45.5 129t-120.5 52q-109 0 -161.5 -104.5t-52.5 -212.5q0 -82 45.5 -139t123.5 -57zM438 679q-127 0 -204.5 93t-77.5 221q0 156 96 278t248 122q128 0 207.5 -93.5t79.5 -222.5q0 -152 -99.5 -275t-249.5 -123z"/>
<glyph glyph-name="ampersand" horiz-adv-x="1366" unicode="&amp;" d="M791 203l-241 503q-315 -114 -315 -337q0 -114 79 -198t206 -84q135 0 271 116zM645 848q149 62 207.5 125t58.5 145q0 74 -52 121t-130 47q-81 0 -131 -52.5t-50 -133.5q0 -76 97 -252zM1203 -18q-78 -19 -127 -19q-41 0 -95.5 18.5t-124.5 109.5q-127 -85 -201.5 -108 t-153.5 -23q-186 0 -311.5 119t-125.5 283q0 99 50.5 192.5t136 146t250.5 110.5q-99 183 -99 305q0 116 90 202.5t240 86.5q141 0 229.5 -83t88.5 -206q0 -107 -67.5 -193t-295.5 -180l216 -443q180 184 285 443l121 -47q-123 -300 -342 -513q53 -91 130 -91q36 0 123 16z "/>
<glyph glyph-name="quotesingle" horiz-adv-x="364" unicode="&apos;" d="M285 844h-93l57 521h153z"/>
<glyph glyph-name="parenleft" horiz-adv-x="601" unicode="(" d="M367 -341h-95q-186 283 -186 662q0 568 471 1044h115q-215 -236 -331.5 -526t-116.5 -578q0 -325 143 -602z"/>
<glyph glyph-name="parenright" horiz-adv-x="601" unicode=")" d="M242 1365h95q186 -282 186 -662q0 -569 -471 -1044h-115q216 236 332.5 525.5t116.5 576.5q0 325 -144 604z"/>
<glyph glyph-name="asterisk" d="M691 1365h118l-66 -348l350 114l17 -112l-351 -101l165 -279l-108 -69l-151 286l-247 -286l-84 69l257 278l-317 102l55 112l311 -115z" unicode="*"/>
<glyph glyph-name="plus" d="M152 753h403v421h150v-421h403v-138h-403v-421h-150v421h-403v138z" unicode="+"/>
<glyph glyph-name="comma" horiz-adv-x="512" unicode="," d="M55 -304h-79l187 304h-104l38 229h226l-39 -229z"/>
<glyph glyph-name="hyphen" horiz-adv-x="512" unicode="-" d="M475 452h-455l19 116h455z"/>
<glyph glyph-name="period" horiz-adv-x="512" unicode="." d="M284 0h-225l38 229h226z"/>
<glyph glyph-name="slash" horiz-adv-x="960" unicode="/" d="M-117 -341h-131l1151 1706h133z"/>
<glyph glyph-name="zero" d="M566 82q199 0 309 243.5t110 522.5q0 241 -84 337.5t-208 96.5q-202 0 -312 -251.5t-110 -517.5q0 -237 85.5 -334t209.5 -97zM556 -44q-202 0 -327 162t-125 438q0 321 166.5 587t428.5 266q207 0 333 -164.5t126 -427.5q0 -333 -170 -597t-432 -264z" unicode="0"/>
<glyph glyph-name="one" d="M1084 0h-978l22 132h398l177 1049q-55 -77 -175 -122t-229 -46l22 136q334 46 463 249h116l-212 -1266h418z" unicode="1"/>
<glyph glyph-name="two" d="M1004 0h-971l28 169q338 206 557.5 368.5t286 260t66.5 193.5q0 121 -86.5 200t-214.5 79q-96 0 -189 -58t-168 -257l-136 51q137 402 497 402q196 0 331.5 -123.5t135.5 -300.5q0 -213 -204 -386t-698 -452h789z" unicode="2"/>
<glyph glyph-name="three" d="M51 307l136 53q106 -260 369 -260q139 0 235.5 82.5t96.5 206.5q0 97 -58 162.5t-136 80t-272 14.5l22 135q81 -2 132 -2q229 0 303 82t74 174q0 104 -80 171t-193 67q-212 0 -321 -218l-125 70q152 273 450 273q196 0 315 -107.5t119 -255.5q0 -115 -76.5 -205 t-237.5 -123q120 -29 185.5 -124t65.5 -203q0 -167 -138 -291t-360 -124q-172 0 -312 90.5t-194 251.5z" unicode="3"/>
<glyph glyph-name="four" d="M733 466l128 768l-635 -768h507zM816 0h-161l55 330h-654l23 137l773 937h199l-157 -938h224l-23 -136h-224z" unicode="4"/>
<glyph glyph-name="five" d="M76 286l132 60q122 -237 353 -237q165 0 263.5 110.5t98.5 256.5q0 135 -87.5 227t-222.5 92q-182 0 -297 -188l-144 44l162 714h802l-47 -144h-649l-100 -450q118 153 302 153q180 0 312 -125.5t132 -319.5q0 -199 -142.5 -351.5t-382.5 -152.5q-166 0 -296 84t-189 227 z" unicode="5"/>
<glyph glyph-name="six" d="M618 105q140 0 239.5 103t99.5 260q0 117 -86 207.5t-215 90.5q-134 0 -241 -99.5t-107 -248.5q0 -134 91 -223.5t219 -89.5zM1042 1051q-91 215 -289 215q-345 0 -465 -611q134 248 395 248q182 0 309 -127.5t127 -315.5q0 -192 -137 -341.5t-358 -149.5 q-222 0 -362.5 154t-140.5 425q0 305 169 578.5t458 273.5q336 0 444 -308z" unicode="6"/>
<glyph glyph-name="seven" d="M515 -16h-182q63 719 667 1233h-773l46 148h933l-19 -111q-384 -371 -516.5 -665t-155.5 -605z" unicode="7"/>
<glyph glyph-name="eight" d="M599 645q-363 -90 -363 -296q0 -119 96 -183t247 -64q167 0 257.5 75.5t90.5 179.5q0 69 -49 135t-279 153zM657 789q157 52 234 110t77 150q0 100 -81 160.5t-210 60.5t-213.5 -61.5t-84.5 -167.5q0 -159 278 -252zM822 730q272 -119 272 -344q0 -173 -140.5 -293 t-372.5 -120q-217 0 -361.5 99t-144.5 269q0 269 355 368q-212 108 -212 306q0 159 124.5 269t341.5 110q187 0 313.5 -89t126.5 -237q0 -244 -302 -338z" unicode="8"/>
<glyph glyph-name="nine" d="M605 609q133 0 240.5 98.5t107.5 259.5q0 118 -85.5 209.5t-218.5 91.5q-139 0 -240 -100t-101 -244q0 -137 89 -226t208 -89zM206 298q95 -202 300 -202q162 0 282 139t176 481q-135 -242 -390 -242q-176 0 -300 127.5t-124 314.5q0 201 143.5 341.5t353.5 140.5 q215 0 349.5 -149t134.5 -419q0 -338 -172 -599.5t-470 -261.5q-145 0 -257 72.5t-161 191.5z" unicode="9"/>
<glyph glyph-name="colon" horiz-adv-x="512" unicode=":" d="M284 0h-225l38 229h226zM412 765h-225l38 229h226z"/>
<glyph glyph-name="less" d="M1075 1159v-152l-723 -331l723 -331v-151l-887 416v133z" unicode="&lt;"/>
<glyph glyph-name="equal" d="M155 606h956v-138h-956v138zM155 931h956v-138h-956v138z" unicode="="/>
<glyph glyph-name="greater" d="M188 194v152l724 331l-723 331l-1 151l887 -417v-132z" unicode="&gt;"/>
<glyph glyph-name="question" horiz-adv-x="1020" unicode="?" d="M471 0h-206l33 197h206zM495 349h-142q15 152 39.5 217t64.5 98t155 87q102 48 145 79.5t72.5 84.5t29.5 118q0 110 -78.5 173t-183.5 63q-224 0 -325 -274l-140 58q137 351 469 351q183 0 304 -105t121 -267q0 -77 -33.5 -155t-99.5 -133.5t-239 -124.5 q-90 -36 -119 -81.5t-40 -188.5z"/>
<glyph glyph-name="at" horiz-adv-x="1529" unicode="@" d="M741 410q90 0 155.5 94t65.5 208q0 100 -52 159.5t-127 59.5q-90 0 -152 -82.5t-62 -203.5q0 -104 49.5 -169.5t122.5 -65.5zM1143 1040l-76 -465q-11 -64 -11 -102q0 -63 68 -63q82 0 153.5 108.5t71.5 256.5q0 227 -164 364.5t-388 137.5q-166 0 -294 -81 t-200.5 -217.5t-72.5 -297.5q0 -243 159 -416t452 -173q217 0 424 112l49 -110q-231 -121 -478 -121q-341 0 -536.5 204.5t-195.5 497.5q0 301 200.5 509.5t507.5 208.5q263 0 460 -159.5t197 -443.5q0 -202 -104 -352t-240 -150t-178 127q-97 -131 -222 -131 q-127 0 -215 99.5t-88 261.5q0 174 103 293t252 119q144 0 224 -123l17 106h125z"/>
<glyph glyph-name="A" horiz-adv-x="1155" unicode="A" d="M772 537l-105 627l-308 -627h413zM792 400h-498l-196 -400h-155l669 1365h189l238 -1365h-176z"/>
<glyph glyph-name="B" horiz-adv-x="1251" unicode="B" d="M275 135h296q176 0 246.5 21t117.5 89.5t47 173.5q0 88 -41.5 142t-99.5 70t-204 16h-276zM383 777h258q153 0 226 22.5t119 85.5t46 152q0 73 -38 122.5t-93 62.5t-181 13l-261 -2zM86 0l228 1365h428q163 0 245.5 -23.5t145.5 -104.5t63 -194q0 -247 -267 -329 q99 -31 158 -114.5t59 -197.5q0 -104 -43 -189.5t-109.5 -131.5t-132 -63.5t-241.5 -17.5h-534z"/>
<glyph glyph-name="C" horiz-adv-x="1179" unicode="C" d="M1207 945l-149 -37q-23 199 -112 276.5t-207 77.5q-137 0 -235.5 -94t-158.5 -280t-60 -348q0 -204 89.5 -314.5t236.5 -110.5q233 0 368 321l139 -52q-153 -407 -511 -407q-239 0 -368.5 168t-129.5 428q0 311 174.5 568.5t450.5 257.5q178 0 311 -108t162 -346z"/>
<glyph glyph-name="D" horiz-adv-x="1328" unicode="D" d="M276 139l274 -2q145 0 230 31t155.5 103t119.5 208.5t49 299.5q0 147 -49.5 254.5t-140.5 155.5t-242 48l-213 -2zM86 0l228 1365h379q202 0 315.5 -65.5t188 -201.5t74.5 -332q0 -262 -109 -443.5t-236.5 -252t-335.5 -70.5h-504z"/>
<glyph glyph-name="E" horiz-adv-x="1144" unicode="E" d="M86 0l228 1365h851l-23 -136h-684l-75 -448h586l-23 -135h-585l-84 -501h738l-24 -145h-905z"/>
<glyph glyph-name="F" horiz-adv-x="1039" unicode="F" d="M360 642l-107 -642h-167l228 1365h835l-23 -138h-668l-75 -450h576l-23 -135h-576z"/>
<glyph glyph-name="G" horiz-adv-x="1333" unicode="G" d="M702 683h518l-117 -699h-92l-21 166q-118 -184 -364 -184q-226 0 -370 171t-144 444q0 319 175 568.5t463 249.5q371 0 503 -386l-148 -52q-93 306 -356 306q-215 0 -339 -212.5t-124 -490.5q0 -223 102 -343.5t256 -120.5q149 0 254 111t138 338h-356z"/>
<glyph glyph-name="H" horiz-adv-x="1343" unicode="H" d="M1030 646h-669l-108 -646h-167l228 1365h167l-96 -574h669l96 574h167l-229 -1365h-166z"/>
<glyph glyph-name="I" horiz-adv-x="508" unicode="I" d="M481 1365l-228 -1365h-167l228 1365h167z"/>
<glyph glyph-name="J" horiz-adv-x="755" unicode="J" d="M741 1365l-141 -843q-36 -218 -79 -314t-146.5 -162.5t-254.5 -66.5q-100 0 -205 21l24 140q69 -16 152 -16q107 0 175.5 38.5t98 102t55.5 215.5l148 885h173z"/>
<glyph glyph-name="K" horiz-adv-x="1275" unicode="K" d="M1291 1365l-461 -476l324 -889h-175l-276 770l-388 -398l-62 -372h-167l228 1365h167l-130 -778l750 778h190z"/>
<glyph glyph-name="L" horiz-adv-x="1042" unicode="L" d="M930 0h-844l228 1365h167l-204 -1220h677z"/>
<glyph glyph-name="M" horiz-adv-x="1670" unicode="M" d="M1414 0h-166l210 1253l-656 -1253h-126l-244 1233l-207 -1233h-139l228 1365h253l223 -1118l584 1118h269z"/>
<glyph glyph-name="N" horiz-adv-x="1341" unicode="N" d="M1085 0h-133l-535 1167l-196 -1167h-135l228 1365h187l497 -1088l182 1088h134z"/>
<glyph glyph-name="O" horiz-adv-x="1315" unicode="O" d="M629 110q156 0 265.5 118.5t152.5 300t43 307.5q0 197 -98 308t-250 111q-218 0 -336.5 -218.5t-118.5 -486.5q0 -212 96 -326t246 -114zM629 -27q-235 0 -376 168.5t-141 443.5q0 310 174 559t462 249q228 0 372 -158t144 -434q0 -327 -171 -577.5t-464 -250.5z"/>
<glyph glyph-name="P" horiz-adv-x="1140" unicode="P" d="M368 688h187q174 0 252 18t135.5 94.5t57.5 183.5q0 83 -35 142.5t-90 82t-190 22.5l-227 -2zM345 552l-92 -552h-167l228 1365h375q166 0 259.5 -29.5t159.5 -129.5t66 -218q0 -157 -114.5 -296.5t-439.5 -139.5h-275z"/>
<glyph glyph-name="Q" horiz-adv-x="1309" unicode="Q" d="M627 108q209 0 330.5 203.5t121.5 539.5q0 168 -87 286t-248 118q-225 0 -338.5 -225.5t-113.5 -501.5q0 -195 93 -307.5t242 -112.5zM705 -20q-5 -37 -5 -55q0 -125 156 -125q27 0 177 15l-21 -126q-118 -19 -187 -19q-119 0 -186.5 57.5t-67.5 169.5q0 28 6 77 q-238 30 -352.5 197.5t-114.5 397.5q0 323 175 573.5t460 250.5q229 0 372 -162t143 -432q0 -297 -154 -545.5t-401 -273.5z"/>
<glyph glyph-name="R" horiz-adv-x="1297" unicode="R" d="M375 735h313q377 0 377 271q0 226 -294 226h-312zM755 598h-402l-100 -598h-167l228 1365h427q193 0 287.5 -40.5t150.5 -126.5t56 -196q0 -139 -87.5 -245t-229.5 -129l192 -628h-177z"/>
<glyph glyph-name="S" horiz-adv-x="1171" unicode="S" d="M1114 1080l-144 -55q-38 113 -132 180.5t-216 67.5q-149 0 -222.5 -71t-73.5 -168q0 -64 32.5 -109.5t85 -68t192.5 -57.5q184 -47 261 -84.5t132 -119.5t55 -196q0 -193 -141.5 -310.5t-376.5 -117.5q-441 0 -558 380l149 54q93 -296 409 -296q170 0 259.5 82t89.5 190 q0 66 -32.5 115.5t-83.5 73t-166 51.5q-176 42 -271.5 86t-150 123.5t-54.5 186.5q0 164 123.5 274.5t327.5 110.5q375 0 506 -322z"/>
<glyph glyph-name="T" horiz-adv-x="1000" unicode="T" d="M1099 1226h-395l-206 -1226h-166l205 1226h-396l23 139h959z"/>
<glyph glyph-name="U" horiz-adv-x="1259" unicode="U" d="M1254 1365l-139 -832q-38 -226 -93.5 -332t-166.5 -168.5t-268 -62.5q-189 0 -319.5 92t-130.5 293q0 60 32 255l127 755h167l-134 -791q-28 -165 -28 -211q0 -122 83 -188.5t207 -66.5q114 0 195 45t121 122t67 243l142 847h138z"/>
<glyph glyph-name="V" horiz-adv-x="1082" unicode="V" d="M554 0h-150l-270 1365h182l214 -1103l531 1103h158z"/>
<glyph glyph-name="W" horiz-adv-x="1663" unicode="W" d="M1215 0h-169l-131 1089l-438 -1089h-177l-134 1365h167l109 -1128l461 1128h128l140 -1128l456 1128h141z"/>
<glyph glyph-name="X" horiz-adv-x="1103" unicode="X" d="M1012 0h-193l-271 574l-455 -574h-173l560 700l-319 665h187l248 -528l419 528h174l-523 -651z"/>
<glyph glyph-name="Y" horiz-adv-x="1049" unicode="Y" d="M532 0h-172l95 572l-348 793h183l284 -646l472 646h168l-587 -793z"/>
<glyph glyph-name="Z" horiz-adv-x="1076" unicode="Z" d="M1121 1365l-19 -113l-905 -1107h770l-24 -145h-980l24 145l887 1082h-684l23 138h908z"/>
<glyph glyph-name="bracketleft" horiz-adv-x="601" unicode="[" d="M377 -341h-371l286 1706h371l-16 -92h-229l-254 -1522h229z"/>
<glyph glyph-name="backslash" horiz-adv-x="960" unicode="\" d="M812 -341l-581 1706h114l579 -1706h-112z"/>
<glyph glyph-name="bracketright" horiz-adv-x="601" unicode="]" d="M226 1365h371l-286 -1706h-371l16 92h229l254 1522h-229z"/>
<glyph glyph-name="asciicircum" horiz-adv-x="1024" unicode="^" d="M1006 745h-167l-297 503l-295 -503h-165l361 624h201z"/>
<glyph glyph-name="underscore" horiz-adv-x="1024" unicode="_" d="M31 -136h1024v-137h-1024v137z"/>
<glyph glyph-name="grave" horiz-adv-x="1024" unicode="`" d="M385 1356l62 120l368 -228l-43 -81z"/>
<glyph glyph-name="a" horiz-adv-x="1096" unicode="a" d="M781 509q-72 6 -138 6q-438 0 -438 -246q0 -76 47.5 -122t132.5 -46q134 0 249.5 115t146.5 293zM877 0h-159q-1 31 -1 51q0 78 18 147q-153 -227 -380 -227q-142 0 -232.5 87t-90.5 218q0 147 130 251t485 104q32 0 153 -6q11 65 11 106q0 192 -233 192 q-205 0 -293 -171l-148 63q120 230 431 230q172 0 288 -75.5t116 -213.5q0 -56 -77 -526q-21 -127 -21 -187q0 -9 3 -43z"/>
<glyph glyph-name="b" horiz-adv-x="1101" unicode="b" d="M543 94q147 0 234.5 164t87.5 379q0 132 -58.5 204.5t-151.5 72.5q-150 0 -253 -171.5t-103 -355.5q0 -138 71.5 -215.5t172.5 -77.5zM140 0h-68l228 1365h157l-85 -513q130 187 312 187q161 0 253 -117.5t92 -312.5q0 -247 -134.5 -441.5t-347.5 -194.5q-212 0 -316 207 z"/>
<glyph glyph-name="c" horiz-adv-x="971" unicode="c" d="M940 690l-153 -33q-15 122 -79.5 187t-151.5 65q-159 0 -237.5 -161t-78.5 -349q0 -145 65.5 -219.5t165.5 -74.5q181 0 280 244l128 -48q-50 -155 -164 -244.5t-260 -89.5q-187 0 -284.5 147.5t-97.5 326.5q0 227 134.5 416t352.5 189q152 0 259 -99.5t121 -256.5z"/>
<glyph glyph-name="d" horiz-adv-x="1101" unicode="d" d="M449 97q151 0 253.5 164t102.5 377q0 129 -73.5 203t-169.5 74q-152 0 -239.5 -169.5t-87.5 -368.5q0 -135 59 -207.5t155 -72.5zM860 0h-143l39 200q-137 -227 -349 -227q-162 0 -249 121t-87 306q0 231 132.5 434.5t350.5 203.5q208 0 294 -190l87 517h153z"/>
<glyph glyph-name="e" horiz-adv-x="1065" unicode="e" d="M257 608h576q2 32 2 48q0 123 -70 196.5t-182 73.5q-127 0 -215.5 -94.5t-110.5 -223.5zM938 237q-156 -266 -438 -266q-191 0 -311.5 125t-120.5 338q0 262 150 437t372 175q109 0 203.5 -47t147 -147t52.5 -243q0 -51 -9 -116h-747q-6 -48 -6 -79q0 -139 73 -225.5 t198 -86.5q86 0 155.5 38.5t149.5 158.5z"/>
<glyph glyph-name="f" horiz-adv-x="614" unicode="f" d="M674 1013l-20 -123h-246l-149 -890h-156l149 890h-188l21 123h188q31 203 131 293t283 90q41 0 93 -6l-21 -124q-45 5 -72 5q-126 0 -185.5 -66.5t-72.5 -191.5h245z"/>
<glyph glyph-name="g" horiz-adv-x="1031" unicode="g" d="M234 29q-131 -39 -131 -140q0 -84 108 -123t271 -39q300 0 300 164q0 47 -41.5 81.5t-233.5 36.5q-171 2 -273 20zM528 446q111 0 180 67t69 180q0 95 -63.5 153t-161.5 58q-106 0 -173.5 -68t-67.5 -173q0 -95 57.5 -156t159.5 -61zM1058 1078q-57 3 -82 3 q-139 0 -174 -129q133 -103 133 -250q0 -152 -110.5 -260.5t-289.5 -108.5q-100 0 -196 42q-130 -57 -130 -135q0 -41 39 -54t179 -15q212 -3 301 -18.5t146.5 -77t57.5 -153.5q0 -145 -116.5 -228t-361.5 -83q-504 0 -504 242q0 152 187 220q-79 44 -79 130q0 143 209 225 q-113 84 -113 235q0 152 113 255t292 103q69 0 162 -27q43 136 111 180t164 44q37 0 84 -9z"/>
<glyph glyph-name="h" horiz-adv-x="1115" unicode="h" d="M456 1365l-90 -540q137 217 338 217q123 0 206 -75t83 -205q0 -49 -15 -139l-105 -623h-154l104 623q12 70 12 124q0 82 -48 127t-121 45q-115 0 -221 -126t-148 -377l-69 -416h-156l228 1365h156z"/>
<glyph glyph-name="i" horiz-adv-x="470" unicode="i" d="M230 0h-157l170 1014h157zM453 1180h-203l31 185h203z"/>
<glyph glyph-name="j" horiz-adv-x="469" unicode="j" d="M396 1014l-159 -949q-27 -161 -55 -236t-106 -127.5t-186 -52.5q-56 0 -138 12l20 121q70 -7 107 -7q71 0 111.5 31t53.5 73t38 186l159 949h155zM451 1180h-203l31 185h203z"/>
<glyph glyph-name="k" horiz-adv-x="1003" unicode="k" d="M228 0h-156l228 1365h156l-144 -861l540 509h183l-389 -361l252 -652h-166l-213 547l-239 -237z"/>
<glyph glyph-name="l" horiz-adv-x="470" unicode="l" d="M456 1365l-228 -1365h-156l228 1365h156z"/>
<glyph glyph-name="m" horiz-adv-x="1673" unicode="m" d="M1431 0h-156l98 585q16 99 16 147q0 93 -50.5 136t-117.5 43q-98 0 -188.5 -111t-129.5 -346l-76 -454h-157l97 581q20 116 20 158q0 85 -46 130.5t-115 45.5q-52 0 -106.5 -33.5t-104 -112t-67.5 -148t-51 -257.5l-66 -364h-159l170 1013h147l-25 -167q138 192 306 192 q204 0 265 -219q141 221 330 221q124 0 204 -75t80 -203q0 -54 -14 -139z"/>
<glyph glyph-name="n" horiz-adv-x="1122" unicode="n" d="M880 0h-149l98 583q17 100 17 145q0 79 -49 134.5t-141 55.5q-113 0 -215.5 -110t-160.5 -445l-63 -363h-145l170 1013h135l-38 -226q131 255 356 255q133 0 216.5 -81.5t83.5 -213.5q0 -60 -17 -162z"/>
<glyph glyph-name="o" horiz-adv-x="1066" unicode="o" d="M490 96q161 0 248 159t87 365q0 156 -73.5 225.5t-174.5 69.5q-159 0 -246 -158t-87 -355q0 -151 67 -228.5t179 -77.5zM483 -30q-189 0 -298 131.5t-109 336.5q0 232 143 416t367 184q185 0 295 -126.5t110 -344.5q0 -226 -141 -411.5t-367 -185.5z"/>
<glyph glyph-name="p" horiz-adv-x="1097" unicode="p" d="M530 100q166 0 245.5 166.5t79.5 360.5q0 136 -63 206.5t-153 70.5q-128 0 -235 -160.5t-107 -362.5q0 -127 63.5 -204t169.5 -77zM171 -341h-156l226 1350h145l-32 -206q141 229 340 229q140 0 235 -114t95 -318q0 -239 -133 -433t-337 -194q-193 0 -301 175z"/>
<glyph glyph-name="q" horiz-adv-x="1092" unicode="q" d="M448 97q141 0 244.5 180t103.5 360q0 125 -68.5 201t-168.5 76q-151 0 -237 -168.5t-86 -371.5q0 -133 61 -205t151 -72zM1019 1014l-227 -1355h-156l89 533q-128 -222 -319 -222q-137 0 -236.5 109t-99.5 312q0 257 143.5 450t338.5 193q203 0 307 -191l90 171h70z"/>
<glyph glyph-name="r" horiz-adv-x="694" unicode="r" d="M228 0h-156l170 1014h155l-48 -265q81 155 169.5 224.5t209.5 69.5q15 0 34 -1l-26 -160l-38 1q-93 0 -151.5 -35t-106.5 -99t-89 -159t-85 -363z"/>
<glyph glyph-name="s" horiz-adv-x="945" unicode="s" d="M857 796l-130 -55q-67 170 -266 170q-91 0 -146 -46.5t-55 -110.5q0 -65 42.5 -95.5t166.5 -58.5l63 -15q106 -24 164 -52.5t98 -91t40 -142.5q0 -135 -106.5 -230t-290.5 -95q-132 0 -247.5 51t-198.5 225l145 49q72 -200 306 -200q112 0 173.5 50t61.5 125 q0 59 -36.5 93.5t-162.5 64.5l-53 13q-117 28 -179.5 57.5t-104.5 89.5t-42 137q0 126 97.5 215.5t266.5 89.5q305 0 394 -238z"/>
<glyph glyph-name="t" horiz-adv-x="628" unicode="t" d="M383 892l-92 -549q-16 -93 -16 -126q0 -112 128 -112q45 0 138 10l-16 -125q-1 0 -29 -3q-83 -9 -122 -9q-252 0 -252 223q0 58 26 210l80 481h-154l21 122h157l41 245l153 14l-43 -259h231l-21 -122h-230z"/>
<glyph glyph-name="u" horiz-adv-x="1111" unicode="u" d="M1044 1014l-170 -1014h-136l41 245q-135 -272 -369 -272q-91 0 -156.5 42.5t-94.5 100.5t-29 146q0 57 22 185l97 567h156l-103 -616q-18 -105 -18 -129q0 -79 46 -123.5t121 -44.5q126 0 233 137.5t149 386.5l65 389h146z"/>
<glyph glyph-name="v" horiz-adv-x="910" unicode="v" d="M447 0h-144l-207 1014h168l154 -794l398 794h141z"/>
<glyph glyph-name="w" horiz-adv-x="1380" unicode="w" d="M959 0h-116l-127 772l-323 -772h-127l-156 1014h154l113 -762l319 762h129l121 -762l334 762h133z"/>
<glyph glyph-name="x" horiz-adv-x="893" unicode="x" d="M812 0h-177l-211 418l-329 -418h-158l419 525l-254 488h179l184 -361l281 361h152l-371 -470z"/>
<glyph glyph-name="y" horiz-adv-x="870" unicode="y" d="M941 1014l-556 -1069q-103 -199 -193 -250t-190 -51q-42 0 -100 7l23 136q51 -10 86 -10q161 0 248 180l35 71l-212 986h160l164 -771l399 771h136z"/>
<glyph glyph-name="z" horiz-adv-x="859" unicode="z" d="M733 0h-770l18 107l668 779h-519l22 128h728l-18 -103l-675 -784h567z"/>
<glyph glyph-name="braceleft" horiz-adv-x="601" unicode="{" d="M247 511q95 -46 95 -161q0 -22 -8 -69l-56 -332q-8 -49 -8 -74q0 -57 33.5 -83t131.5 -27l-17 -106h-34q-148 0 -199.5 49.5t-51.5 141.5q0 44 9 101l55 328q7 43 7 63q0 98 -93 123l17 99q122 28 147 178l59 355q25 147 104.5 207.5t222.5 60.5h42l-18 -106 q-112 -3 -156.5 -40.5t-60.5 -136.5l-58 -346q-29 -175 -163 -225z"/>
<glyph glyph-name="bar" horiz-adv-x="1024" unicode="|" d="M467 1365h153v-1706h-153v1706z"/>
<glyph glyph-name="braceright" horiz-adv-x="601" unicode="}" d="M356 513q-95 46 -95 161q0 22 7 69l56 332q8 48 8 73q0 58 -33.5 84t-131.5 27l17 106h35q147 0 199 -49.5t52 -141.5q0 -44 -10 -101l-55 -328q-7 -42 -7 -63q0 -98 93 -123l-16 -99q-123 -29 -148 -178l-59 -355q-24 -146 -103.5 -207t-222.5 -61h-43l18 106 q112 3 156.5 40t60.5 137l58 346q30 176 164 225z"/>
<glyph glyph-name="asciitilde" d="M140 585q107 238 281 238q84 0 229 -70q134 -64 197 -64q112 0 173 116q13 25 25 25q24 0 80 -58q-114 -231 -282 -231q-81 0 -254 81q-112 52 -182 52q-102 0 -165 -126q-12 -24 -23 -24q-23 0 -79 61z" unicode="~"/>
<glyph glyph-name="uni00A0" horiz-adv-x="512" unicode=" "/>
<glyph glyph-name="exclamdown" horiz-adv-x="548" unicode="¡" d="M258 1024h206l-33 -195h-206zM254 673h85l-90 -1014h-226z"/>
<glyph glyph-name="cent" d="M536 343l109 652q-111 -10 -176.5 -128.5t-65.5 -269.5q0 -206 133 -254zM566 -102h-105l56 332q-128 28 -195 135.5t-67 251.5q0 193 115.5 343.5t293.5 150.5l45 268h105l-47 -280q190 -43 249 -267l-115 -38q-56 174 -152 195l-110 -658q131 5 216 189l104 -47 q-109 -256 -340 -257z" unicode="¢"/>
<glyph glyph-name="sterling" d="M1126 216q-67 -99 -122.5 -140.5t-125.5 -58.5t-241 -17h-696l24 145q149 2 216 21.5t129.5 87.5t81 156t18.5 239h-217l19 114h201q2 155 18 242.5t73.5 176t147 141t190.5 52.5q191 0 298 -173l-124 -85q-60 125 -177 125q-54 0 -101.5 -23t-81.5 -65t-48.5 -96.5 t-16.5 -130.5l-4 -164h289l-20 -114h-272q-3 -365 -235 -504h287q134 0 187.5 10t97.5 42t93 104z" unicode="£"/>
<glyph glyph-name="currency" horiz-adv-x="1365" unicode="¤" d="M1068 741q0 143 -101.5 245t-244.5 102t-244 -102.5t-101 -243.5q0 -144 101.5 -245.5t243.5 -101.5t244 101.5t102 244.5zM143 256l196 195q-104 140 -104 289q0 147 101 290l-197 197l92 92l197 -197q149 104 298 104q142 0 288 -102l196 194l91 -91l-194 -195 q102 -151 102 -291q0 -143 -102 -288l198 -197l-91 -92l-197 197q-141 -103 -295 -103q-137 0 -292 101l-196 -195z"/>
<glyph glyph-name="yen" horiz-adv-x="1200" unicode="¥" d="M194 847h229l-209 518h172l261 -646l448 646h158l-365 -518h251l-17 -103h-306l-121 -172l-5 -26h399l-17 -102h-399l-74 -444h-160l74 444h-386l17 102h387l4 26l-70 172h-288z"/>
<glyph glyph-name="brokenbar" horiz-adv-x="1024" unicode="¦" d="M467 314h153v-655h-153v655zM467 1365h153v-682h-153v682z"/>
<glyph glyph-name="section" d="M701 321q181 79 181 198q0 52 -28.5 92t-75 62t-164.5 62q-42 14 -75 29q-193 -94 -193 -206q0 -57 43.5 -101.5t311.5 -135.5zM35 -72l173 28q97 -186 323 -186q122 0 201.5 59t79.5 155q0 71 -51.5 117t-272.5 117q-170 55 -239.5 115.5t-69.5 183.5q0 184 238 305 q-120 86 -120 233q0 150 107.5 244t285.5 94q345 0 426 -266l-158 -17q-63 160 -258 160q-110 0 -175 -50.5t-65 -133.5q0 -73 51.5 -113.5t260.5 -118.5q121 -46 167 -82t74 -93t28 -119q0 -155 -212 -288q155 -82 155 -261q0 -162 -123.5 -271t-335.5 -109 q-173 0 -308.5 82t-181.5 215z" unicode="§"/>
<glyph glyph-name="dieresis" horiz-adv-x="1024" unicode="¨" d="M589 1303q0 -42 -31.5 -72t-73.5 -30t-72.5 30t-30.5 71q0 43 30.5 72.5t69.5 29.5q48 0 78 -30t30 -71zM911 1304q0 -43 -31.5 -73t-74.5 -30t-74.5 30t-31.5 72q0 43 31.5 72.5t73.5 29.5q44 0 75.5 -29.5t31.5 -71.5z"/>
<glyph glyph-name="copyright" horiz-adv-x="1584" unicode="©" d="M1172 833l-114 -27q-24 211 -191 211q-130 0 -198 -136.5t-68 -276.5q0 -121 53.5 -185.5t140.5 -64.5q137 0 220 194l104 -38q-92 -251 -328 -251q-157 0 -239 104.5t-82 252.5q0 196 111 346t284 150q113 0 199.5 -63t107.5 -216zM1426 683q0 249 -178 426.5 t-427 177.5t-427 -177.5t-178 -426.5q0 -250 177 -427.5t428 -177.5q249 0 427 178t178 427zM1527 683q0 -291 -207.5 -498.5t-498.5 -207.5t-498.5 207.5t-207.5 498.5q0 290 207.5 498t498.5 208t498.5 -208t207.5 -498z"/>
<glyph glyph-name="ordfeminine" horiz-adv-x="721" unicode="ª" d="M591 1064q-39 3 -76 3q-257 0 -257 -138q0 -93 102 -93q79 0 145.5 64t85.5 164zM677 763h-121q-1 20 -1 42q0 17 2 42q-85 -101 -217 -101q-92 0 -151.5 53.5t-59.5 130.5q0 219 389 219q38 0 87 -3q5 30 5 53q0 108 -136 108q-121 0 -174 -104l-111 44q79 146 281 146 q110 0 185.5 -47t75.5 -130q0 -41 -45 -310q-12 -73 -12 -109q0 -3 3 -34z"/>
<glyph glyph-name="guillemotleft" horiz-adv-x="691" unicode="«" d="M546 216h-74l-135 280l205 289h96l-150 -289zM294 216h-73l-141 280l203 289h87l-142 -289z"/>
<glyph glyph-name="logicalnot" d="M1075 0h-152v408h-631l-104 102v36h887v-546z" unicode="¬"/>
<glyph glyph-name="uni00AD" horiz-adv-x="512" unicode="­" d="M475 452h-455l19 116h455z"/>
<glyph glyph-name="registered" horiz-adv-x="1584" unicode="®" d="M656 720h183q131 0 176 42.5t45 110.5q0 127 -174 127h-183zM871 626h-231l-59 -353h-125l137 819h276q318 0 318 -223q0 -82 -55 -145t-138 -78l123 -373h-132zM1426 683q0 249 -178 426.5t-427 177.5t-427 -177.5t-178 -426.5q0 -250 177 -427.5t428 -177.5 q249 0 427 178t178 427zM1527 683q0 -291 -207.5 -498.5t-498.5 -207.5t-498.5 207.5t-207.5 498.5q0 290 207.5 498t498.5 208t498.5 -208t207.5 -498z"/>
<glyph glyph-name="uni00AF" horiz-adv-x="1024" unicode="¯" d="M31 1768h1024v-137h-1024v137z"/>
<glyph glyph-name="degree" d="M548 1123q0 -65 45.5 -110t104.5 -45q68 0 114 45.5t46 109.5t-45.5 109.5t-110.5 45.5q-63 0 -108.5 -45.5t-45.5 -109.5zM432 1122q0 111 79.5 191t191.5 80t191.5 -79.5t79.5 -191.5q0 -111 -80 -190.5t-195 -79.5q-108 0 -187.5 79.5t-79.5 190.5z" unicode="°"/>
<glyph glyph-name="plusminus" d="M125 71h956v-139h-956v139zM125 753h403v421h150v-421h403v-138h-403v-421h-150v421h-403v138z" unicode="±"/>
<glyph glyph-name="twosuperior" horiz-adv-x="792" unicode="²" d="M711 546h-614l18 110q394 236 476 321.5t82 158.5q0 70 -53 115t-129 45q-54 0 -110.5 -32.5t-103.5 -155.5l-97 34q87 249 316 249q124 0 210.5 -75t86.5 -183q0 -115 -102.5 -210.5t-432.5 -276.5h470z"/>
<glyph glyph-name="threesuperior" horiz-adv-x="792" unicode="³" d="M105 738l97 36q67 -155 227 -155q84 0 140 46t56 115q0 55 -35 93t-82 46t-174 8l16 94q51 -1 85 -1q228 0 228 141q0 60 -48.5 98t-116.5 38q-129 0 -194 -131l-90 47q98 172 289 172q123 0 199.5 -65.5t76.5 -156.5q0 -142 -172 -193q60 -20 98 -74.5t38 -118.5 q0 -101 -87 -176t-227 -75q-109 0 -199 55.5t-125 156.5z"/>
<glyph glyph-name="acute" horiz-adv-x="1024" unicode="´" d="M945 1356l-401 -189l-43 81l382 228z"/>
<glyph glyph-name="uni00B5" d="M56 -341l227 1355h156l-96 -568q-13 -78 -13 -127q0 -76 51.5 -142t145.5 -66q255 0 313 348l93 555h156l-170 -1014h-142l28 168q-70 -116 -137 -155.5t-152 -39.5q-164 0 -224 167l-80 -481h-156z" unicode="µ"/>
<glyph glyph-name="paragraph" d="M711 821l75 449h-70q-151 0 -210 -24.5t-94.5 -84.5t-35.5 -154q0 -80 44.5 -133t189.5 -53h101zM1236 1365l-16 -95h-136l-270 -1611h-99l269 1611h-98l-270 -1611h-99l178 1066h-109q-157 0 -227 25t-109 93t-39 162q0 118 53 202t139.5 121t293.5 37h539z" unicode="¶"/>
<glyph glyph-name="uni00B7" horiz-adv-x="264" unicode="·" d="M225 391h-225l38 229h226z"/>
<glyph glyph-name="cedilla" horiz-adv-x="1024" unicode="¸" d="M406 0h74l-41 -98q23 1 37 1q55 0 103 -32t48 -92q0 -68 -58 -113t-158 -45q-98 0 -174 46l31 66q73 -37 138 -37q114 0 114 77q0 67 -119 67q-28 0 -67 -5z"/>
<glyph glyph-name="onesuperior" horiz-adv-x="792" unicode="¹" d="M734 546h-565l15 92h220l99 590q-93 -81 -248 -85l16 94q211 26 289 147h82l-125 -746h233z"/>
<glyph glyph-name="ordmasculine" horiz-adv-x="702" unicode="º" d="M426 837q94 0 143.5 91.5t49.5 204.5q0 95 -43.5 134.5t-101.5 39.5q-92 0 -142 -91.5t-50 -200.5q0 -178 144 -178zM421 749q-122 0 -193.5 80t-71.5 205q0 142 91.5 250.5t234.5 108.5q122 0 192.5 -79.5t70.5 -199.5q0 -150 -92.5 -257.5t-231.5 -107.5z"/>
<glyph glyph-name="guillemotright" horiz-adv-x="690" unicode="»" d="M143 785h74l135 -280l-205 -289h-96l149 289zM394 785h74l141 -280l-203 -289h-87l142 289z"/>
<glyph glyph-name="onequarter" horiz-adv-x="1802" unicode="¼" d="M1488 288l71 425l-366 -425h295zM1553 0h-114l33 195h-405l14 90l479 557h134l-93 -554h139l-15 -93h-140zM468 0h-129l1052 1365h130zM695 546h-565l15 92h220l99 590q-93 -81 -248 -85l16 94q211 26 289 147h82l-125 -746h233z"/>
<glyph glyph-name="onehalf" horiz-adv-x="1802" unicode="½" d="M1669 0h-615l19 110q388 231 472.5 318t84.5 161q0 71 -52.5 116t-128.5 45q-55 0 -111.5 -33t-102.5 -156l-97 35q87 248 316 248q127 0 212 -75.5t85 -182.5q0 -124 -119 -224t-417 -262h470zM468 0h-129l1052 1365h130zM695 546h-565l15 92h220l99 590 q-93 -81 -248 -85l16 94q211 26 289 147h82l-125 -746h233z"/>
<glyph glyph-name="threequarters" horiz-adv-x="1802" unicode="¾" d="M1488 288l72 425l-366 -425h294zM1554 0h-114l33 195h-406l15 90l479 557h134l-93 -554h139l-15 -93h-140zM510 0h-129l1051 1365h131zM66 738l97 36q67 -155 227 -155q84 0 140 46t56 115q0 55 -35 93t-82 46t-174 8l16 94q51 -1 85 -1q228 0 228 141q0 60 -48.5 98 t-116.5 38q-129 0 -194 -131l-90 47q98 172 289 172q123 0 199.5 -65.5t76.5 -156.5q0 -142 -172 -193q60 -20 98 -74.5t38 -118.5q0 -101 -87 -176t-227 -75q-109 0 -199 55.5t-125 156.5z"/>
<glyph glyph-name="questiondown" horiz-adv-x="1019" unicode="¿" d="M550 1024h206l-33 -197h-206zM526 675h142q-15 -152 -39.5 -217t-64.5 -98t-155 -87q-102 -48 -145 -79.5t-72.5 -84.5t-29.5 -118q0 -110 78.5 -173t183.5 -63q224 0 325 274l140 -58q-137 -351 -469 -351q-183 0 -304 105t-121 267q0 77 33.5 155t99.5 133.5t239 124.5 q90 36 119 81.5t40 188.5z"/>
<glyph glyph-name="Agrave" horiz-adv-x="1155" unicode="À" d="M772 537l-105 627l-308 -627h413zM792 400h-498l-196 -400h-155l669 1365h189l238 -1365h-176zM415 1677l62 120l368 -228l-43 -81z"/>
<glyph glyph-name="Aacute" horiz-adv-x="1155" unicode="Á" d="M772 537l-105 627l-308 -627h413zM792 400h-498l-196 -400h-155l669 1365h189l238 -1365h-176zM1029 1677l-401 -189l-43 81l382 228z"/>
<glyph glyph-name="Acircumflex" horiz-adv-x="1155" unicode="Â" d="M772 537l-105 627l-308 -627h413zM792 400h-498l-196 -400h-155l669 1365h189l238 -1365h-176zM1035 1515l-145 -20l-159 137l-202 -137l-144 20l371 260z"/>
<glyph glyph-name="Atilde" horiz-adv-x="1155" unicode="Ã" d="M772 537l-105 627l-308 -627h413zM792 400h-498l-196 -400h-155l669 1365h189l238 -1365h-176zM986 1701l76 -72q-96 -100 -200 -100q-48 0 -128 34q-86 38 -132 38q-81 0 -134 -66l-83 58q87 128 221 128q47 0 127 -34q88 -37 132 -37q67 0 121 51z"/>
<glyph glyph-name="Adieresis" horiz-adv-x="1155" unicode="Ä" d="M772 537l-105 627l-308 -627h413zM792 400h-498l-196 -400h-155l669 1365h189l238 -1365h-176zM665 1624q0 -42 -31.5 -72t-73.5 -30t-72.5 30t-30.5 71q0 43 30.5 72.5t69.5 29.5q48 0 78 -30t30 -71zM987 1625q0 -43 -31.5 -73t-74.5 -30t-74.5 30t-31.5 72 q0 43 31.5 72.5t73.5 29.5q44 0 75.5 -29.5t31.5 -71.5z"/>
<glyph glyph-name="Aring" horiz-adv-x="1155" unicode="Å" d="M772 537l-105 627l-308 -627h413zM792 400h-498l-196 -400h-155l669 1365h189l238 -1365h-176zM822 1633q0 38 -26 65t-60 27q-42 0 -69 -27t-27 -63q0 -38 27.5 -65t64.5 -27t63.5 26.5t26.5 63.5zM911 1635q0 -75 -52.5 -127.5t-125.5 -52.5q-75 0 -128.5 53.5 t-53.5 127.5q0 73 53 126.5t133 53.5q69 0 121.5 -52t52.5 -129z"/>
<glyph glyph-name="AE" horiz-adv-x="1790" unicode="Æ" d="M828 601l97 575l-423 -575h326zM1637 0h-909l79 471h-397l-349 -471h-173l1022 1365h902l-22 -135h-690l-75 -449h590l-22 -134h-590l-84 -502h742z"/>
<glyph glyph-name="Ccedilla" horiz-adv-x="1179" unicode="Ç" d="M605 -23l-34 -84q24 2 40 2q59 0 111 -34.5t52 -99.5q0 -75 -63 -123.5t-171 -48.5q-106 0 -189 50l34 72q79 -40 150 -40q124 0 124 83q0 72 -129 72q-30 0 -74 -5l71 161q-203 29 -310.5 193t-107.5 398q0 311 174.5 568.5t450.5 257.5q178 0 311 -108t162 -346 l-149 -37q-23 199 -112 276.5t-207 77.5q-137 0 -235.5 -94t-158.5 -280t-60 -348q0 -204 89.5 -314.5t236.5 -110.5q233 0 368 321l139 -52q-148 -404 -513 -407z"/>
<glyph glyph-name="Egrave" horiz-adv-x="1144" unicode="È" d="M86 0l228 1365h851l-23 -136h-684l-75 -448h586l-23 -135h-585l-84 -501h738l-24 -145h-905zM503 1677l62 120l368 -228l-43 -81z"/>
<glyph glyph-name="Eacute" horiz-adv-x="1144" unicode="É" d="M86 0l228 1365h851l-23 -136h-684l-75 -448h586l-23 -135h-585l-84 -501h738l-24 -145h-905zM1043 1677l-401 -189l-43 81l382 228z"/>
<glyph glyph-name="Ecircumflex" horiz-adv-x="1144" unicode="Ê" d="M86 0l228 1365h851l-23 -136h-684l-75 -448h586l-23 -135h-585l-84 -501h738l-24 -145h-905zM1087 1515l-145 -20l-159 137l-202 -137l-144 20l371 260z"/>
<glyph glyph-name="Edieresis" horiz-adv-x="1144" unicode="Ë" d="M86 0l228 1365h851l-23 -136h-684l-75 -448h586l-23 -135h-585l-84 -501h738l-24 -145h-905zM712 1624q0 -42 -31.5 -72t-73.5 -30t-72.5 30t-30.5 71q0 43 30.5 72.5t69.5 29.5q48 0 78 -30t30 -71zM1034 1625q0 -43 -31.5 -73t-74.5 -30t-74.5 30t-31.5 72 q0 43 31.5 72.5t73.5 29.5q44 0 75.5 -29.5t31.5 -71.5z"/>
<glyph glyph-name="Igrave" horiz-adv-x="508" unicode="Ì" d="M481 1365l-228 -1365h-167l228 1365h167zM126 1677l62 120l368 -228l-43 -81z"/>
<glyph glyph-name="Iacute" horiz-adv-x="508" unicode="Í" d="M481 1365l-228 -1365h-167l228 1365h167zM723 1677l-401 -189l-43 81l382 228z"/>
<glyph glyph-name="Icircumflex" horiz-adv-x="508" unicode="Î" d="M481 1365l-228 -1365h-167l228 1365h167zM747 1515l-145 -20l-159 137l-202 -137l-144 20l371 260z"/>
<glyph glyph-name="Idieresis" horiz-adv-x="508" unicode="Ï" d="M481 1365l-228 -1365h-167l228 1365h167zM400 1624q0 -42 -31.5 -72t-73.5 -30t-72.5 30t-30.5 71q0 43 30.5 72.5t69.5 29.5q48 0 78 -30t30 -71zM722 1625q0 -43 -31.5 -73t-74.5 -30t-74.5 30t-31.5 72q0 43 31.5 72.5t73.5 29.5q44 0 75.5 -29.5t31.5 -71.5z"/>
<glyph glyph-name="Eth" horiz-adv-x="1328" unicode="Ð" d="M377 781h327l-21 -123h-326l-83 -519l275 -2q144 0 227 30t153 100.5t119.5 205.5t49.5 295q0 208 -96 338.5t-340 130.5l-212 -2zM304 1365h379q193 0 302.5 -58t194.5 -195t85 -346q0 -261 -105 -441t-232.5 -252.5t-337.5 -72.5h-505l106 658h-137l20 123h137z"/>
<glyph glyph-name="Ntilde" horiz-adv-x="1341" unicode="Ñ" d="M1085 0h-133l-535 1167l-196 -1167h-135l228 1365h187l497 -1088l182 1088h134zM1116 1701l76 -72q-96 -100 -200 -100q-48 0 -128 34q-86 38 -132 38q-81 0 -134 -66l-83 58q87 128 221 128q47 0 127 -34q88 -37 132 -37q67 0 121 51z"/>
<glyph glyph-name="Ograve" horiz-adv-x="1315" unicode="Ò" d="M629 110q156 0 265.5 118.5t152.5 300t43 307.5q0 197 -98 308t-250 111q-218 0 -336.5 -218.5t-118.5 -486.5q0 -212 96 -326t246 -114zM629 -27q-235 0 -376 168.5t-141 443.5q0 310 174 559t462 249q228 0 372 -158t144 -434q0 -327 -171 -577.5t-464 -250.5z M558 1677l62 120l368 -228l-43 -81z"/>
<glyph glyph-name="Oacute" horiz-adv-x="1315" unicode="Ó" d="M629 110q156 0 265.5 118.5t152.5 300t43 307.5q0 197 -98 308t-250 111q-218 0 -336.5 -218.5t-118.5 -486.5q0 -212 96 -326t246 -114zM629 -27q-235 0 -376 168.5t-141 443.5q0 310 174 559t462 249q228 0 372 -158t144 -434q0 -327 -171 -577.5t-464 -250.5z M1132 1677l-401 -189l-43 81l382 228z"/>
<glyph glyph-name="Ocircumflex" horiz-adv-x="1315" unicode="Ô" d="M629 110q156 0 265.5 118.5t152.5 300t43 307.5q0 197 -98 308t-250 111q-218 0 -336.5 -218.5t-118.5 -486.5q0 -212 96 -326t246 -114zM629 -27q-235 0 -376 168.5t-141 443.5q0 310 174 559t462 249q228 0 372 -158t144 -434q0 -327 -171 -577.5t-464 -250.5z M1146 1515l-145 -20l-159 137l-202 -137l-144 20l371 260z"/>
<glyph glyph-name="Otilde" horiz-adv-x="1315" unicode="Õ" d="M629 110q156 0 265.5 118.5t152.5 300t43 307.5q0 197 -98 308t-250 111q-218 0 -336.5 -218.5t-118.5 -486.5q0 -212 96 -326t246 -114zM629 -27q-235 0 -376 168.5t-141 443.5q0 310 174 559t462 249q228 0 372 -158t144 -434q0 -327 -171 -577.5t-464 -250.5z M1056 1700l76 -72q-96 -100 -200 -100q-48 0 -128 34q-86 38 -132 38q-81 0 -134 -66l-83 58q87 128 221 128q47 0 127 -34q88 -37 132 -37q67 0 121 51z"/>
<glyph glyph-name="Odieresis" horiz-adv-x="1315" unicode="Ö" d="M629 110q156 0 265.5 118.5t152.5 300t43 307.5q0 197 -98 308t-250 111q-218 0 -336.5 -218.5t-118.5 -486.5q0 -212 96 -326t246 -114zM629 -27q-235 0 -376 168.5t-141 443.5q0 310 174 559t462 249q228 0 372 -158t144 -434q0 -327 -171 -577.5t-464 -250.5z M778 1624q0 -42 -31.5 -72t-73.5 -30t-72.5 30t-30.5 71q0 43 30.5 72.5t69.5 29.5q48 0 78 -30t30 -71zM1100 1625q0 -43 -31.5 -73t-74.5 -30t-74.5 30t-31.5 72q0 43 31.5 72.5t73.5 29.5q44 0 75.5 -29.5t31.5 -71.5z"/>
<glyph glyph-name="multiply" d="M939 277l-308 309l-309 -309l-98 98l309 309l-309 309l98 98l309 -309l308 309l98 -98l-308 -309l308 -309z" unicode="×"/>
<glyph glyph-name="Oslash" horiz-adv-x="1315" unicode="Ø" d="M400 203q96 -92 228 -92q221 0 341.5 223t120.5 509q0 120 -48 226zM334 304l637 863q-103 88 -231 88q-210 0 -331 -215t-121 -496q0 -137 46 -240zM300 91l-105 -139h-146l173 231q-110 163 -110 404q0 307 174.5 556.5t459.5 249.5q188 0 328 -114l113 141h150 l-181 -230q108 -168 108 -390q0 -339 -175.5 -583.5t-450.5 -244.5q-191 0 -338 119z"/>
<glyph glyph-name="Ugrave" horiz-adv-x="1259" unicode="Ù" d="M1254 1365l-139 -832q-38 -226 -93.5 -332t-166.5 -168.5t-268 -62.5q-189 0 -319.5 92t-130.5 293q0 60 32 255l127 755h167l-134 -791q-28 -165 -28 -211q0 -122 83 -188.5t207 -66.5q114 0 195 45t121 122t67 243l142 847h138zM531 1677l62 120l368 -228l-43 -81z"/>
<glyph glyph-name="Uacute" horiz-adv-x="1259" unicode="Ú" d="M1254 1365l-139 -832q-38 -226 -93.5 -332t-166.5 -168.5t-268 -62.5q-189 0 -319.5 92t-130.5 293q0 60 32 255l127 755h167l-134 -791q-28 -165 -28 -211q0 -122 83 -188.5t207 -66.5q114 0 195 45t121 122t67 243l142 847h138zM1119 1677l-401 -189l-43 81l382 228z "/>
<glyph glyph-name="Ucircumflex" horiz-adv-x="1259" unicode="Û" d="M1254 1365l-139 -832q-38 -226 -93.5 -332t-166.5 -168.5t-268 -62.5q-189 0 -319.5 92t-130.5 293q0 60 32 255l127 755h167l-134 -791q-28 -165 -28 -211q0 -122 83 -188.5t207 -66.5q114 0 195 45t121 122t67 243l142 847h138zM1134 1515l-145 -20l-159 137l-202 -137 l-144 20l371 260z"/>
<glyph glyph-name="Udieresis" horiz-adv-x="1259" unicode="Ü" d="M1254 1365l-139 -832q-38 -226 -93.5 -332t-166.5 -168.5t-268 -62.5q-189 0 -319.5 92t-130.5 293q0 60 32 255l127 755h167l-134 -791q-28 -165 -28 -211q0 -122 83 -188.5t207 -66.5q114 0 195 45t121 122t67 243l142 847h138zM759 1624q0 -42 -31.5 -72t-73.5 -30 t-72.5 30t-30.5 71q0 43 30.5 72.5t69.5 29.5q48 0 78 -30t30 -71zM1081 1625q0 -43 -31.5 -73t-74.5 -30t-74.5 30t-31.5 72q0 43 31.5 72.5t73.5 29.5q44 0 75.5 -29.5t31.5 -71.5z"/>
<glyph glyph-name="Yacute" horiz-adv-x="1049" unicode="Ý" d="M532 0h-172l95 572l-348 793h183l284 -646l472 646h168l-587 -793zM1005 1677l-401 -189l-43 81l382 228z"/>
<glyph glyph-name="Thorn" horiz-adv-x="1154" unicode="Þ" d="M335 490h187q174 0 252 18t135.5 94.5t57.5 183.5q0 82 -35.5 142t-90 82.5t-189.5 22.5l-227 -2zM312 354l-59 -354h-167l228 1365h167l-33 -198h208q166 0 260.5 -30t159.5 -130t65 -217q0 -157 -114 -296.5t-440 -139.5h-275z"/>
<glyph glyph-name="germandbls" horiz-adv-x="1135" unicode="ß" d="M217 -60h-156l147 878h-104l21 126l104 -1q99 508 494 508q151 0 242 -78t91 -188q0 -139 -117.5 -229t-350.5 -90q-17 -13 -17 -27q0 -15 17 -28t113 -49q138 -52 206 -94t111 -113t43 -155q0 -164 -125.5 -294t-344.5 -130q-130 0 -244 50l44 120q95 -38 201 -38 q132 0 215 74.5t83 179.5q0 76 -42 120t-188 116q-154 76 -190 113t-36 88q0 79 68 152q396 43 396 227q0 61 -50.5 103.5t-142.5 42.5q-97 0 -167 -52t-101.5 -130.5t-56.5 -224.5z"/>
<glyph glyph-name="agrave" horiz-adv-x="1096" unicode="à" d="M781 509q-72 6 -138 6q-438 0 -438 -246q0 -76 47.5 -122t132.5 -46q134 0 249.5 115t146.5 293zM877 0h-159q-1 31 -1 51q0 78 18 147q-153 -227 -380 -227q-142 0 -232.5 87t-90.5 218q0 147 130 251t485 104q32 0 153 -6q11 65 11 106q0 192 -233 192 q-205 0 -293 -171l-148 63q120 230 431 230q172 0 288 -75.5t116 -213.5q0 -56 -77 -526q-21 -127 -21 -187q0 -9 3 -43zM384 1356l62 120l368 -228l-43 -81z"/>
<glyph glyph-name="aacute" horiz-adv-x="1096" unicode="á" d="M781 509q-72 6 -138 6q-438 0 -438 -246q0 -76 47.5 -122t132.5 -46q134 0 249.5 115t146.5 293zM877 0h-159q-1 31 -1 51q0 78 18 147q-153 -227 -380 -227q-142 0 -232.5 87t-90.5 218q0 147 130 251t485 104q32 0 153 -6q11 65 11 106q0 192 -233 192 q-205 0 -293 -171l-148 63q120 230 431 230q172 0 288 -75.5t116 -213.5q0 -56 -77 -526q-21 -127 -21 -187q0 -9 3 -43zM944 1356l-401 -189l-43 81l382 228z"/>
<glyph glyph-name="acircumflex" horiz-adv-x="1096" unicode="â" d="M781 509q-72 6 -138 6q-438 0 -438 -246q0 -76 47.5 -122t132.5 -46q134 0 249.5 115t146.5 293zM877 0h-159q-1 31 -1 51q0 78 18 147q-153 -227 -380 -227q-142 0 -232.5 87t-90.5 218q0 147 130 251t485 104q32 0 153 -6q11 65 11 106q0 192 -233 192 q-205 0 -293 -171l-148 63q120 230 431 230q172 0 288 -75.5t116 -213.5q0 -56 -77 -526q-21 -127 -21 -187q0 -9 3 -43zM982 1194l-145 -20l-159 137l-202 -137l-144 20l371 260z"/>
<glyph glyph-name="atilde" horiz-adv-x="1096" unicode="ã" d="M781 509q-72 6 -138 6q-438 0 -438 -246q0 -76 47.5 -122t132.5 -46q134 0 249.5 115t146.5 293zM877 0h-159q-1 31 -1 51q0 78 18 147q-153 -227 -380 -227q-142 0 -232.5 87t-90.5 218q0 147 130 251t485 104q32 0 153 -6q11 65 11 106q0 192 -233 192 q-205 0 -293 -171l-148 63q120 230 431 230q172 0 288 -75.5t116 -213.5q0 -56 -77 -526q-21 -127 -21 -187q0 -9 3 -43zM940 1380l76 -72q-96 -100 -200 -100q-48 0 -128 34q-86 38 -132 38q-81 0 -134 -66l-83 58q87 128 221 128q47 0 127 -34q88 -37 132 -37q67 0 121 51 z"/>
<glyph glyph-name="adieresis" horiz-adv-x="1096" unicode="ä" d="M781 509q-72 6 -138 6q-438 0 -438 -246q0 -76 47.5 -122t132.5 -46q134 0 249.5 115t146.5 293zM877 0h-159q-1 31 -1 51q0 78 18 147q-153 -227 -380 -227q-142 0 -232.5 87t-90.5 218q0 147 130 251t485 104q32 0 153 -6q11 65 11 106q0 192 -233 192 q-205 0 -293 -171l-148 63q120 230 431 230q172 0 288 -75.5t116 -213.5q0 -56 -77 -526q-21 -127 -21 -187q0 -9 3 -43zM609 1303q0 -42 -31.5 -72t-73.5 -30t-72.5 30t-30.5 71q0 43 30.5 72.5t69.5 29.5q48 0 78 -30t30 -71zM931 1304q0 -43 -31.5 -73t-74.5 -30 t-74.5 30t-31.5 72q0 43 31.5 72.5t73.5 29.5q44 0 75.5 -29.5t31.5 -71.5z"/>
<glyph glyph-name="aring" horiz-adv-x="1096" unicode="å" d="M781 509q-72 6 -138 6q-438 0 -438 -246q0 -76 47.5 -122t132.5 -46q134 0 249.5 115t146.5 293zM877 0h-159q-1 31 -1 51q0 78 18 147q-153 -227 -380 -227q-142 0 -232.5 87t-90.5 218q0 147 130 251t485 104q32 0 153 -6q11 65 11 106q0 192 -233 192 q-205 0 -293 -171l-148 63q120 230 431 230q172 0 288 -75.5t116 -213.5q0 -56 -77 -526q-21 -127 -21 -187q0 -9 3 -43zM757 1326q0 38 -25.5 65t-59.5 27q-43 0 -69.5 -27t-26.5 -63q0 -38 27 -65t65 -27q37 0 63 26.5t26 63.5zM840 1326q0 -71 -50.5 -121.5t-121.5 -50.5 t-123 51t-52 122q0 70 51.5 122t127.5 52q67 0 117.5 -51.5t50.5 -123.5z"/>
<glyph glyph-name="ae" horiz-adv-x="1723" unicode="æ" d="M757 508q-70 9 -143 9q-241 0 -331 -73t-90 -177q0 -66 43 -116.5t131 -50.5q144 0 260 131.5t130 276.5zM922 603h572q2 29 2 46q0 134 -74.5 205.5t-181.5 71.5q-118 0 -206 -89t-112 -234zM1598 237q-154 -267 -431 -267q-137 0 -245.5 69t-158.5 202 q-177 -267 -418 -267q-142 0 -229.5 83t-87.5 215q0 149 126 252t441 103q49 0 178 -7q13 55 13 102q0 201 -232 201q-185 0 -276 -168l-143 60q128 227 409 227q243 0 353 -154q148 152 352 152q182 0 291.5 -115t109.5 -314q0 -52 -8 -118h-739q-8 -49 -8 -87 q0 -142 78.5 -225t193.5 -83q181 0 301 195z"/>
<glyph glyph-name="ccedilla" horiz-adv-x="971" unicode="ç" d="M460 -33l-28 -65q23 1 37 1q55 0 103 -32t48 -92q0 -69 -58 -113.5t-158 -44.5q-98 0 -174 46l31 66q73 -37 138 -37q114 0 114 77q0 67 -119 67q-28 0 -67 -5l60 138q-146 26 -230 145.5t-84 299.5q0 260 138 444t348 184q153 0 260 -100t121 -256l-153 -33 q-15 122 -79.5 187t-151.5 65q-159 0 -237.5 -161t-78.5 -349q0 -145 65.5 -219.5t165.5 -74.5q181 0 280 244l128 -48q-49 -152 -160 -241.5t-259 -92.5z"/>
<glyph glyph-name="egrave" horiz-adv-x="1065" unicode="è" d="M257 608h576q2 32 2 48q0 123 -70 196.5t-182 73.5q-127 0 -215.5 -94.5t-110.5 -223.5zM938 237q-156 -266 -438 -266q-191 0 -311.5 125t-120.5 338q0 262 150 437t372 175q109 0 203.5 -47t147 -147t52.5 -243q0 -51 -9 -116h-747q-6 -48 -6 -79q0 -139 73 -225.5 t198 -86.5q86 0 155.5 38.5t149.5 158.5zM364 1356l62 120l368 -228l-43 -81z"/>
<glyph glyph-name="eacute" horiz-adv-x="1065" unicode="é" d="M257 608h576q2 32 2 48q0 123 -70 196.5t-182 73.5q-127 0 -215.5 -94.5t-110.5 -223.5zM938 237q-156 -266 -438 -266q-191 0 -311.5 125t-120.5 338q0 262 150 437t372 175q109 0 203.5 -47t147 -147t52.5 -243q0 -51 -9 -116h-747q-6 -48 -6 -79q0 -139 73 -225.5 t198 -86.5q86 0 155.5 38.5t149.5 158.5zM931 1356l-401 -189l-43 81l382 228z"/>
<glyph glyph-name="ecircumflex" horiz-adv-x="1065" unicode="ê" d="M257 608h576q2 32 2 48q0 123 -70 196.5t-182 73.5q-127 0 -215.5 -94.5t-110.5 -223.5zM938 237q-156 -266 -438 -266q-191 0 -311.5 125t-120.5 338q0 262 150 437t372 175q109 0 203.5 -47t147 -147t52.5 -243q0 -51 -9 -116h-747q-6 -48 -6 -79q0 -139 73 -225.5 t198 -86.5q86 0 155.5 38.5t149.5 158.5zM980 1194l-145 -20l-159 137l-202 -137l-144 20l371 260z"/>
<glyph glyph-name="edieresis" horiz-adv-x="1065" unicode="ë" d="M257 608h576q2 32 2 48q0 123 -70 196.5t-182 73.5q-127 0 -215.5 -94.5t-110.5 -223.5zM938 237q-156 -266 -438 -266q-191 0 -311.5 125t-120.5 338q0 262 150 437t372 175q109 0 203.5 -47t147 -147t52.5 -243q0 -51 -9 -116h-747q-6 -48 -6 -79q0 -139 73 -225.5 t198 -86.5q86 0 155.5 38.5t149.5 158.5zM609 1303q0 -42 -31.5 -72t-73.5 -30t-72.5 30t-30.5 71q0 43 30.5 72.5t69.5 29.5q48 0 78 -30t30 -71zM931 1304q0 -43 -31.5 -73t-74.5 -30t-74.5 30t-31.5 72q0 43 31.5 72.5t73.5 29.5q44 0 75.5 -29.5t31.5 -71.5z"/>
<glyph glyph-name="igrave" horiz-adv-x="470" unicode="ì" d="M236 0h-156l170 1014h155zM73 1356l62 120l368 -228l-43 -81z"/>
<glyph glyph-name="iacute" horiz-adv-x="470" unicode="í" d="M229 0h-156l170 1014h155zM648 1356l-401 -189l-43 81l382 228z"/>
<glyph glyph-name="icircumflex" horiz-adv-x="470" unicode="î" d="M229 0h-156l170 1014h155zM672 1194l-145 -20l-159 137l-202 -137l-144 20l371 260z"/>
<glyph glyph-name="idieresis" horiz-adv-x="470" unicode="ï" d="M229 0h-156l170 1014h155zM334 1303q0 -42 -31.5 -72t-73.5 -30t-72.5 30t-30.5 71q0 43 30.5 72.5t69.5 29.5q48 0 78 -30t30 -71zM656 1304q0 -43 -31.5 -73t-74.5 -30t-74.5 30t-31.5 72q0 43 31.5 72.5t73.5 29.5q44 0 75.5 -29.5t31.5 -71.5z"/>
<glyph glyph-name="eth" horiz-adv-x="1046" unicode="ð" d="M566 888q-155 0 -242.5 -150t-87.5 -334q0 -153 66.5 -229.5t181.5 -76.5q165 0 249 160.5t84 344.5q0 132 -70.5 208.5t-180.5 76.5zM446 1174l141 74q-54 48 -148 90l57 90q126 -41 218 -116l171 84l51 -87l-148 -73q202 -239 202 -594q0 -302 -143.5 -486.5 t-371.5 -184.5q-194 0 -300 136.5t-106 323.5q0 218 141.5 398t349.5 180q128 0 218 -85q-37 133 -115 249l-165 -85z"/>
<glyph glyph-name="ntilde" horiz-adv-x="1122" unicode="ñ" d="M880 0h-149l98 583q17 100 17 145q0 79 -49 134.5t-141 55.5q-113 0 -215.5 -110t-160.5 -445l-63 -363h-145l170 1013h135l-38 -226q131 255 356 255q133 0 216.5 -81.5t83.5 -213.5q0 -60 -17 -162zM960 1380l76 -72q-96 -100 -200 -100q-48 0 -128 34q-86 38 -132 38 q-81 0 -134 -66l-83 58q87 128 221 128q47 0 127 -34q88 -37 132 -37q67 0 121 51z"/>
<glyph glyph-name="ograve" horiz-adv-x="1066" unicode="ò" d="M490 96q161 0 248 159t87 365q0 156 -73.5 225.5t-174.5 69.5q-159 0 -246 -158t-87 -355q0 -151 67 -228.5t179 -77.5zM483 -30q-189 0 -298 131.5t-109 336.5q0 232 143 416t367 184q185 0 295 -126.5t110 -344.5q0 -226 -141 -411.5t-367 -185.5zM378 1356l62 120 l368 -228l-43 -81z"/>
<glyph glyph-name="oacute" horiz-adv-x="1066" unicode="ó" d="M490 96q161 0 248 159t87 365q0 156 -73.5 225.5t-174.5 69.5q-159 0 -246 -158t-87 -355q0 -151 67 -228.5t179 -77.5zM483 -30q-189 0 -298 131.5t-109 336.5q0 232 143 416t367 184q185 0 295 -126.5t110 -344.5q0 -226 -141 -411.5t-367 -185.5zM959 1356l-401 -189 l-43 81l382 228z"/>
<glyph glyph-name="ocircumflex" horiz-adv-x="1066" unicode="ô" d="M490 96q161 0 248 159t87 365q0 156 -73.5 225.5t-174.5 69.5q-159 0 -246 -158t-87 -355q0 -151 67 -228.5t179 -77.5zM483 -30q-189 0 -298 131.5t-109 336.5q0 232 143 416t367 184q185 0 295 -126.5t110 -344.5q0 -226 -141 -411.5t-367 -185.5zM987 1194l-145 -20 l-159 137l-202 -137l-144 20l371 260z"/>
<glyph glyph-name="otilde" horiz-adv-x="1066" unicode="õ" d="M490 96q161 0 248 159t87 365q0 156 -73.5 225.5t-174.5 69.5q-159 0 -246 -158t-87 -355q0 -151 67 -228.5t179 -77.5zM483 -30q-189 0 -298 131.5t-109 336.5q0 232 143 416t367 184q185 0 295 -126.5t110 -344.5q0 -226 -141 -411.5t-367 -185.5zM940 1380l76 -72 q-96 -100 -200 -100q-48 0 -128 34q-86 38 -132 38q-81 0 -134 -66l-83 58q87 128 221 128q47 0 127 -34q88 -37 132 -37q67 0 121 51z"/>
<glyph glyph-name="odieresis" horiz-adv-x="1066" unicode="ö" d="M490 96q161 0 248 159t87 365q0 156 -73.5 225.5t-174.5 69.5q-159 0 -246 -158t-87 -355q0 -151 67 -228.5t179 -77.5zM483 -30q-189 0 -298 131.5t-109 336.5q0 232 143 416t367 184q185 0 295 -126.5t110 -344.5q0 -226 -141 -411.5t-367 -185.5zM616 1303 q0 -42 -31.5 -72t-73.5 -30t-72.5 30t-30.5 71q0 43 30.5 72.5t69.5 29.5q48 0 78 -30t30 -71zM938 1304q0 -43 -31.5 -73t-74.5 -30t-74.5 30t-31.5 72q0 43 31.5 72.5t73.5 29.5q44 0 75.5 -29.5t31.5 -71.5z"/>
<glyph glyph-name="divide" d="M725 388q0 -40 -28.5 -68t-67.5 -28q-40 0 -68 28t-28 68t28 68.5t68 28.5t68 -28.5t28 -68.5zM152 753h956v-138h-956v138zM725 992q0 -40 -28.5 -68t-67.5 -28t-67.5 28t-28.5 68t28.5 68t67.5 28q40 0 68 -28t28 -68z" unicode="÷"/>
<glyph glyph-name="oslash" horiz-adv-x="1066" unicode="ø" d="M805 758l-482 -599q67 -63 163 -63q164 0 251 158t87 364q0 79 -19 140zM266 251l482 597q-72 67 -174 67q-157 0 -244 -158t-87 -361q0 -79 23 -145zM1088 1070l-174 -203q77 -123 77 -287q0 -246 -144 -428.5t-361 -182.5q-149 0 -258 88l-97 -112h-128l156 190 q-83 126 -83 304q0 232 143 415.5t369 183.5q151 0 256 -90l106 122h138z"/>
<glyph glyph-name="ugrave" horiz-adv-x="1111" unicode="ù" d="M1044 1014l-170 -1014h-136l41 245q-135 -272 -369 -272q-91 0 -156.5 42.5t-94.5 100.5t-29 146q0 57 22 185l97 567h156l-103 -616q-18 -105 -18 -129q0 -79 46 -123.5t121 -44.5q126 0 233 137.5t149 386.5l65 389h146zM410 1356l62 120l368 -228l-43 -81z"/>
<glyph glyph-name="uacute" horiz-adv-x="1111" unicode="ú" d="M1044 1014l-170 -1014h-136l41 245q-135 -272 -369 -272q-91 0 -156.5 42.5t-94.5 100.5t-29 146q0 57 22 185l97 567h156l-103 -616q-18 -105 -18 -129q0 -79 46 -123.5t121 -44.5q126 0 233 137.5t149 386.5l65 389h146zM991 1356l-401 -189l-43 81l382 228z"/>
<glyph glyph-name="ucircumflex" horiz-adv-x="1111" unicode="û" d="M1044 1014l-170 -1014h-136l41 245q-135 -272 -369 -272q-91 0 -156.5 42.5t-94.5 100.5t-29 146q0 57 22 185l97 567h156l-103 -616q-18 -105 -18 -129q0 -79 46 -123.5t121 -44.5q126 0 233 137.5t149 386.5l65 389h146zM1005 1194l-145 -20l-159 137l-202 -137 l-144 20l371 260z"/>
<glyph glyph-name="udieresis" horiz-adv-x="1111" unicode="ü" d="M1044 1014l-170 -1014h-136l41 245q-135 -272 -369 -272q-91 0 -156.5 42.5t-94.5 100.5t-29 146q0 57 22 185l97 567h156l-103 -616q-18 -105 -18 -129q0 -79 46 -123.5t121 -44.5q126 0 233 137.5t149 386.5l65 389h146zM636 1303q0 -42 -31.5 -72t-73.5 -30t-72.5 30 t-30.5 71q0 43 30.5 72.5t69.5 29.5q48 0 78 -30t30 -71zM958 1304q0 -43 -31.5 -73t-74.5 -30t-74.5 30t-31.5 72q0 43 31.5 72.5t73.5 29.5q44 0 75.5 -29.5t31.5 -71.5z"/>
<glyph glyph-name="yacute" horiz-adv-x="870" unicode="ý" d="M941 1014l-556 -1069q-103 -199 -193 -250t-190 -51q-42 0 -100 7l23 136q51 -10 86 -10q161 0 248 180l35 71l-212 986h160l164 -771l399 771h136zM849 1356l-401 -189l-43 81l382 228z"/>
<glyph glyph-name="thorn" horiz-adv-x="1098" unicode="þ" d="M532 100q166 0 245 167t79 360q0 138 -63.5 207.5t-152.5 69.5q-128 0 -235 -160.5t-107 -362.5q0 -137 68 -209t166 -72zM170 -354h-157l288 1719h157l-90 -535q146 202 327 202q140 0 235.5 -114t95.5 -318q0 -239 -133 -433t-337 -194q-195 0 -302 175z"/>
<glyph glyph-name="dotlessi" horiz-adv-x="470" unicode="ı" d="M229 0h-156l170 1014h155z"/>
<glyph glyph-name="circumflex" horiz-adv-x="1024" unicode="ˆ" d="M952 1194l-145 -20l-159 137l-202 -137l-144 20l371 260z"/>
<glyph glyph-name="ring" horiz-adv-x="1024" unicode="˚" d="M737 1326q0 38 -25.5 65t-59.5 27q-43 0 -69.5 -27t-26.5 -63q0 -38 27 -65t65 -27q37 0 63 26.5t26 63.5zM820 1326q0 -71 -50.5 -121.5t-121.5 -50.5t-123 51t-52 122q0 70 51.5 122t127.5 52q67 0 117.5 -51.5t50.5 -123.5z"/>
<glyph glyph-name="tilde" horiz-adv-x="1024" unicode="˜" d="M906 1380l76 -72q-96 -100 -200 -100q-48 0 -128 34q-86 38 -132 38q-81 0 -134 -66l-83 58q87 128 221 128q47 0 127 -34q88 -37 132 -37q67 0 121 51z"/>
</font>
</defs>
</svg>
